<svg width="80" height="80" viewBox="0 0 80 80" fill="none" xmlns="http://www.w3.org/2000/svg">
<path d="M77.3088 24.2074C77.0995 24.0993 76.8637 24.048 76.6265 24.0591C76.3894 24.0703 76.1598 24.1434 75.9624 24.2707L62.2759 33.0793V22.7941C62.2759 21.7879 61.8617 20.8228 61.1245 20.1113C60.3873 19.3997 59.3874 19 58.3448 19H5.93103C4.88846 19 3.88859 19.3997 3.15137 20.1113C2.41416 20.8228 2 21.7879 2 22.7941V58.2059C2 59.2121 2.41416 60.1772 3.15137 60.8887C3.88859 61.6003 4.88846 62 5.93103 62H58.3448C59.3874 62 60.3873 61.6003 61.1245 60.8887C61.8617 60.1772 62.2759 59.2121 62.2759 58.2059V47.9207L75.9624 56.7293C76.1598 56.8564 76.3892 56.9294 76.6262 56.9405C76.8632 56.9516 77.0989 56.9004 77.3081 56.7923C77.5173 56.6842 77.6922 56.5233 77.814 56.3268C77.9359 56.1303 78.0002 55.9055 78 55.6765V25.3235C78.0003 25.0945 77.9361 24.8697 77.8144 24.6732C77.6926 24.4766 77.5179 24.3156 77.3088 24.2074ZM59.6552 58.2059C59.6552 58.5413 59.5171 58.863 59.2714 59.1002C59.0256 59.3373 58.6924 59.4706 58.3448 59.4706H5.93103C5.58351 59.4706 5.25022 59.3373 5.00448 59.1002C4.75874 58.863 4.62069 58.5413 4.62069 58.2059V22.7941C4.62069 22.4587 4.75874 22.137 5.00448 21.8998C5.25022 21.6627 5.58351 21.5294 5.93103 21.5294H58.3448C58.6924 21.5294 59.0256 21.6627 59.2714 21.8998C59.5171 22.137 59.6552 22.4587 59.6552 22.7941V58.2059ZM75.3793 53.3146L62.2759 44.8822V36.1178L75.3793 27.6854V53.3146Z" fill="white"/>
</svg>
