<svg width="80" height="80" viewBox="0 0 80 80" fill="none" xmlns="http://www.w3.org/2000/svg">
<path d="M51.6348 33.3265L35.3148 22.2789C35.1099 22.1401 34.8718 22.0604 34.6258 22.0483C34.3798 22.0362 34.1352 22.0922 33.9181 22.2102C33.701 22.3282 33.5195 22.5039 33.393 22.7185C33.2666 22.9331 33.1998 23.1785 33.2 23.4286V45.5238C33.1997 45.7739 33.2663 46.0193 33.3926 46.2339C33.519 46.4486 33.7004 46.6243 33.9174 46.7425C34.1346 46.8606 34.3794 46.9166 34.6255 46.9044C34.8716 46.8923 35.1099 46.8124 35.3148 46.6735L51.6348 35.6258C51.8213 35.4998 51.9743 35.3289 52.0801 35.1283C52.186 34.9277 52.2413 34.7037 52.2413 34.4762C52.2413 34.2487 52.186 34.0246 52.0801 33.8241C51.9743 33.6235 51.8213 33.4526 51.6348 33.3265ZM35.92 42.9449V26.0075L48.4286 34.4762L35.92 42.9449ZM69.92 11H10.08C8.99792 11 7.96015 11.4365 7.195 12.2134C6.42986 12.9904 6 14.0441 6 15.1429V53.8095C6 54.9083 6.42986 55.962 7.195 56.739C7.96015 57.5159 8.99792 57.9524 10.08 57.9524H69.92C71.0021 57.9524 72.0398 57.5159 72.805 56.739C73.5701 55.962 74 54.9083 74 53.8095V15.1429C74 14.0441 73.5701 12.9904 72.805 12.2134C72.0398 11.4365 71.0021 11 69.92 11ZM71.28 53.8095C71.28 54.1758 71.1367 54.527 70.8817 54.786C70.6266 55.045 70.2807 55.1905 69.92 55.1905H10.08C9.71931 55.1905 9.37338 55.045 9.11834 54.786C8.86329 54.527 8.72 54.1758 8.72 53.8095V15.1429C8.72 14.7766 8.86329 14.4254 9.11834 14.1664C9.37338 13.9074 9.71931 13.7619 10.08 13.7619H69.92C70.2807 13.7619 70.6266 13.9074 70.8817 14.1664C71.1367 14.4254 71.28 14.7766 71.28 15.1429V53.8095ZM74 67.619C74 67.9853 73.8567 68.3365 73.6017 68.5955C73.3466 68.8545 73.0007 69 72.64 69H7.36C6.99931 69 6.65338 68.8545 6.39834 68.5955C6.14329 68.3365 6 67.9853 6 67.619C6 67.2528 6.14329 66.9015 6.39834 66.6426C6.65338 66.3836 6.99931 66.2381 7.36 66.2381H72.64C73.0007 66.2381 73.3466 66.3836 73.6017 66.6426C73.8567 66.9015 74 67.2528 74 67.619Z" fill="white"/>
</svg>
